<svg xmlns="http://www.w3.org/2000/svg" viewBox="0 0 148.53 87.65"><defs><style>.cls-1{fill:#000000;}.cls-2{font-size:58px;font-family:Motor-Stencil;letter-spacing:0.08em;}.cls-2,.cls-3{fill:#fff;}.cls-3{font-size:30.55px;font-family:KestrelScript-Regular, Kestrel Script;letter-spacing:0.01em;}.cls-4{fill:#e31013;}</style></defs><g id="Layer_2" data-name="Layer 2"><g id="Layer_1-2" data-name="Layer 1"><rect class="cls-1" y="4.97" width="148.53" height="82.69"/><text class="cls-2" transform="translate(7.59 48.49)">RIC</text><text class="cls-3" transform="translate(3.22 75.4) scale(1.18 1)">Rodriguez</text><path class="cls-4" d="M127.47,12.2a18.35,18.35,0,1,0,8.74,24.45A18.29,18.29,0,0,0,127.47,12.2ZM114.37,40a12.4,12.4,0,1,1,16.45-5.92A12.43,12.43,0,0,1,114.37,40Z"/><polygon class="cls-4" points="132.23 8.73 124.99 24.11 119.87 21.69 127.12 6.31 132.23 8.73"/><polygon class="cls-4" points="119.41 35.95 112.17 51.33 107.05 48.91 114.3 33.53 119.41 35.95"/><polygon class="cls-4" points="114.95 23.45 112.54 28.57 97.2 21.31 99.61 16.18 114.95 23.45"/><polygon class="cls-4" points="142.1 36.3 139.68 41.43 124.34 34.16 126.76 29.04 142.1 36.3"/><polygon class="cls-1" points="120.88 36.61 113.63 51.99 112.1 51.26 119.34 35.88 120.88 36.61"/><polygon class="cls-1" points="114.52 32.91 107.28 48.29 105.75 47.57 112.99 32.19 114.52 32.91"/><polygon class="cls-1" points="133.95 9.08 126.7 24.45 125.17 23.73 132.41 8.35 133.95 9.08"/><polygon class="cls-1" points="127.04 6.49 119.79 21.87 118.26 21.14 125.5 5.76 127.04 6.49"/><polygon class="cls-1" points="141.25 35.88 125.91 28.62 126.64 27.08 141.98 34.34 141.25 35.88"/><polygon class="cls-1" points="137.8 42.43 122.46 35.17 123.18 33.63 138.52 40.89 137.8 42.43"/><polygon class="cls-1" points="112.22 30.3 96.88 23.04 97.6 21.5 112.94 28.77 112.22 30.3"/><polygon class="cls-1" points="113.05 22.61 97.71 15.35 98.44 13.81 113.78 21.08 113.05 22.61"/></g></g></svg>