<svg xmlns="http://www.w3.org/2000/svg" viewBox="0 0 148.53 82.69"><defs><style>.cls-1{fill:#000000;}.cls-2{fill:#fff;}.cls-3{fill:#e31013;}</style></defs><g id="Layer_2" data-name="Layer 2"><g id="Layer_1-2" data-name="Layer 1"><rect class="cls-1" width="148.53" height="82.69"/><path class="cls-2" d="M15.46,4.55v39H9.9v-39ZM30.73,16.38A10.17,10.17,0,0,1,20.32,26.47H17.19V21.25h3.13a4.89,4.89,0,0,0,4.86-4.87V14.64a4.89,4.89,0,0,0-4.86-4.87H17.19V4.55h3.13A10.17,10.17,0,0,1,30.73,14.64Zm1.16,27.14H25.75l-7.63-15H21A8,8,0,0,0,24,28Z"/><path class="cls-2" d="M39.76,9.77V4.55H60.58V9.77H39.76ZM60.58,43.52H39.76V38.3H60.58Zm-13.19-32H53V36.56H47.39Z"/><path class="cls-2" d="M79.15,39.29v4.87c-5.32-.35-9.54-4.23-9.54-9.69V13.6c0-5.46,4.22-9.34,9.54-9.69V8.78a4.93,4.93,0,0,0-4,4.82V34.47A4.93,4.93,0,0,0,79.15,39.29ZM80.89,8.78V3.91c5.32.35,9.54,4.23,9.54,9.69v1.16H84.88V13.6A4.93,4.93,0,0,0,80.89,8.78Zm4,24.53h5.55v1.16c0,5.46-4.28,9.34-9.54,9.69V39.29a4.93,4.93,0,0,0,4-4.82Z"/><path class="cls-2" d="M28.53,60.78a5.23,5.23,0,0,1-.68,0A2.75,2.75,0,0,1,30,63.65c0,.82-.29,1.62-.29,2.26a.58.58,0,0,0,.61.64c.76,0,1.69-1.07,2.27-1.62a1,1,0,0,1,.75-.4.57.57,0,0,1,.64.59c0,.55-1.11,1.55-1.5,1.92-1.69,1.68-4.2,3.64-6.93,3.64-1.69,0-2.26-.86-2.26-2.17a13.55,13.55,0,0,1,1.43-5A3.77,3.77,0,0,0,25.05,62c0-1.34-1.26-1.1-1.26-1.92s.94-.8,1.62-.8a3.83,3.83,0,0,0,4.09-3.66,3.54,3.54,0,0,0-2.22-3.18,14.9,14.9,0,0,0-3.77,5.89C21.35,63.86,19.16,71,10.8,71,7,71,3.4,69.73,3.4,66.06a4,4,0,0,1,4-4c1.4,0,2.44.8,2.44,2,0,2-2.76,1.89-2.76,3.45,0,.82.75,1.16,1.58,1.16,2.51,0,4.34-1.83,5.67-3.45C17,62,19,58.33,21.6,55.1a20.46,20.46,0,0,1,3.34-3.3,11,11,0,0,0-2.08-.16c-3.27,0-6.57,1-8.58,3.24A4.75,4.75,0,0,0,13,58c0,2.75,2.91,1.89,2.91,3.3,0,.7-.72,1-1.44,1-2.4,0-3.34-2.17-3.34-3.88,0-5.59,7.11-8.44,12.86-8.44a18.73,18.73,0,0,1,3.19.28,11.31,11.31,0,0,1,3.7-1.41c.4,0,.79.19.79.55a.93.93,0,0,1-.61.77c-.57.27-1.22.58-1.54.76,2.55,1,4.66,3,4.66,5.53C34.13,59.25,31.51,60.78,28.53,60.78Z"/><path class="cls-2" d="M47.17,65.85a5.12,5.12,0,0,1-4.88,1.74,8.88,8.88,0,0,1-6.18,2.87,3,3,0,0,1-3.3-3,4.13,4.13,0,0,1,.11-.92.66.66,0,0,1-.29.06c-.39,0-.64-.18-.64-.58a.94.94,0,0,1,.28-.58c1.19-1.25,2.37-2.54,3.66-3.73,1.66-1.52,4.1-3.17,6.68-3.17,2,0,2.91,1.07,2.91,2.69A9,9,0,0,1,43.62,66a1.58,1.58,0,0,0,.43.06A2.92,2.92,0,0,0,46.1,65a.69.69,0,0,1,.53-.21c.4,0,.76.24.76.58A.69.69,0,0,1,47.17,65.85Zm-4.34-5.47c-1.44,0-3.13,3-3.66,3.94a8.22,8.22,0,0,0-1.3,3.18.59.59,0,0,0,.65.64c.86,0,1.69-1,2.12-1.47a1.93,1.93,0,0,1-.61-1.4,1.26,1.26,0,0,1,1.29-1.35,1.16,1.16,0,0,1,.9.4,7.71,7.71,0,0,0,1.18-3.18C43.4,60.81,43.29,60.38,42.83,60.38Z"/><path class="cls-2" d="M65.45,55.86c-1.26,2.41-2.7,4.7-4.13,7-.43.7-2.12,3.54-2.12,4.21,0,.15.07.25.22.25.79,0,2.22-1.56,3.3-2.66a1,1,0,0,1,.65-.25h.1c.29.06.58.22.58.58a1.17,1.17,0,0,1-.36.68c-1.55,1.74-4.78,4.7-7.51,4.7-1.4,0-2.22-.64-2.22-1.83a2.37,2.37,0,0,1,.11-.74c-1.44,1.13-3.49,2.57-5.6,2.57a2,2,0,0,1-2.23-2.23,3.35,3.35,0,0,1,.47-1.71c-.4,0-.87-.15-.9-.55v-.09a1,1,0,0,1,.32-.7,38.13,38.13,0,0,1,3.48-3.3c1.84-1.56,4.06-3.27,6.83-3.27a2.31,2.31,0,0,1,2.19.94C60,57.3,61.07,55,62.47,52.8c.25-.39.64-.94,1.25-.94,1.19,0,2.12,1.83,2.12,2.66A2.69,2.69,0,0,1,65.45,55.86Zm-7.94,5.5c0-.4-.21-.61-.68-.61h-.11c-1.72.09-5,5-5,6.26a.38.38,0,0,0,.4.43c1.65,0,5.31-4.55,5.38-6Z"/><path class="cls-2" d="M75.36,65.7a19.4,19.4,0,0,1-5.21,4.24,4.82,4.82,0,0,1-2.22.49c-1.55,0-2.52-.7-2.52-2.05,0-2.41,4.46-5.86,4.46-6.81,0-.24-.33-.27-.51-.27s-.61.06-.93.06a2.53,2.53,0,0,1-.47,0c-1,1.1-2,2.2-2.9,3.14-.65.71-1.3,1.38-1.76,1.84a1,1,0,0,1-.65.3.67.67,0,0,1-.72-.64.83.83,0,0,1,.25-.55C63.51,64,65,62.52,66.35,61a1.32,1.32,0,0,1-.79-1.28,3.11,3.11,0,0,1,2.83-2.78,1.14,1.14,0,0,1,1.3,1.19,2.37,2.37,0,0,1-.61,1.56,1.76,1.76,0,0,0,.39.06c1.44,0,2.62-1.13,4.06-1.13a1.27,1.27,0,0,1,1.33,1.19c0,1.25-3.45,5.07-4,6.93a1,1,0,0,0-.08.37.29.29,0,0,0,.33.31c.75,0,2.73-2.11,3.3-2.69a.67.67,0,0,1,.54-.22.68.68,0,0,1,.72.62A1,1,0,0,1,75.36,65.7Z"/><path class="cls-2" d="M84.84,65.82a21.64,21.64,0,0,1-5.13,4.09,5.44,5.44,0,0,1-2.3.52c-1.4,0-2.09-.58-2.09-1.77,0-1.41,1.76-4,2.63-5.32l-.11-.12c-1,1-1.72,2-2.84,3.06a.9.9,0,0,1-.61.24.65.65,0,0,1-.72-.61A1,1,0,0,1,74,65.3c1-1,1.83-1.93,2.8-3s1.94-2.16,3-3.23a1.46,1.46,0,0,1,1.11-.55c1.15,0,2.41,1.68,2.41,2.56a2.92,2.92,0,0,1-.47,1.38,28.57,28.57,0,0,0-2.26,4.3.82.82,0,0,0-.07.34c0,.12,0,.25.21.25.76,0,2.7-2,3.27-2.63a.89.89,0,0,1,.58-.25c.43,0,.72.25.72.58A1.06,1.06,0,0,1,84.84,65.82Zm-.79-8.89A2.06,2.06,0,0,1,81.79,55c0-1.52,1.76-2.84,3.48-2.84a2.08,2.08,0,0,1,2.26,1.9C87.53,55.65,85.77,56.93,84.05,56.93Z"/><path class="cls-2" d="M101.18,65.73a20.49,20.49,0,0,1-2.19,2,15.83,15.83,0,0,1-4.28,2.32c-2.11,3.52-4.81,8.19-10.19,8.19-1.58,0-3.45-.64-3.45-2.23,0-2.87,6.07-4.58,8.65-5.41l1.15-2c-1.33.79-3,1.83-4.74,1.83a2.09,2.09,0,0,1-2.33-2.26,3,3,0,0,1,.47-1.68l-.22,0a.68.68,0,0,1-.75-.64.7.7,0,0,1,.14-.43,45.12,45.12,0,0,1,3.73-3.57c1.84-1.56,4-3.27,6.75-3.27a2.42,2.42,0,0,1,2.27,1c.39-.65,1.15-2.54,2.12-2.54,1.14,0,2.11,1.56,2.11,2.38a3.13,3.13,0,0,1-.46,1.44c-1.3,2.44-2.7,4.8-4.1,7.24a14,14,0,0,0,2.66-1.77,19.94,19.94,0,0,0,1.54-1.5,1,1,0,0,1,.72-.31h.11c.32,0,.57.19.57.55A.94.94,0,0,1,101.18,65.73ZM84.45,76.05a.6.6,0,0,0,.64.64c1.47,0,3.13-3.45,3.7-4.46C87.32,72.91,84.45,74.43,84.45,76.05Zm9.91-15.3h-.11c-1.72.12-5,5-5,6.29a.35.35,0,0,0,.39.4c1.65,0,5.39-4.68,5.39-6A.6.6,0,0,0,94.36,60.75Z"/><path class="cls-2" d="M118.63,65.73a19.4,19.4,0,0,1-2,2,14.73,14.73,0,0,1-3.37,2.23,5.65,5.65,0,0,1-2.19.52c-1.4,0-2.08-.58-2.08-1.74s1.15-3,2-4l-.07-.06c-1.62,1.59-6,5.8-8.55,5.8a1.45,1.45,0,0,1-1.62-1.4c0-1.26,2.34-4.62,3.13-5.87L103.8,63c-1,1.1-1.83,2.08-3,3.27a1,1,0,0,1-.68.3.67.67,0,0,1-.68-.67.72.72,0,0,1,.22-.49c1-1.07,2.15-2.26,3.15-3.36s1.91-2.2,2.88-3.21a1.42,1.42,0,0,1,1.07-.55c1.33,0,2.23,1.62,2.23,2.6,0,1.59-2.44,4.52-2.44,5,0,.15.07.21.21.21,1,0,5.89-5.1,6.72-6a3.56,3.56,0,0,1,3.16-1.44c.57,0,1.47.09,1.47.73,0,.89-4,6.69-4,7.7a.22.22,0,0,0,.22.25c.64,0,2.44-1.81,3.23-2.57a.88.88,0,0,1,.64-.28.63.63,0,0,1,.69.59A1,1,0,0,1,118.63,65.73Z"/><path class="cls-2" d="M131.3,65.48a17.54,17.54,0,0,1-2.08,2,11.81,11.81,0,0,1-7.54,2.9c-2.26,0-3.91-.85-3.91-2.93a3.74,3.74,0,0,1,.14-1.07,2.1,2.1,0,0,1-.25,0,.88.88,0,0,1-.46-.12.52.52,0,0,1-.22-.4,1.24,1.24,0,0,1,.32-.67l.65-.67c2.4-2.48,5.82-6,9.58-6,1.62,0,2.84.64,2.84,2.1,0,2.91-4.85,5.26-7.57,6.24a.94.94,0,0,0,0,.36,1,1,0,0,0,1.11,1.13c1.83,0,3.84-1.4,5.14-2.59.43-.37.9-.83,1.29-1.23a1,1,0,0,1,.68-.27.6.6,0,0,1,.65.58A1.1,1.1,0,0,1,131.3,65.48Zm-3.62-5.34c-1.29,0-4,4.27-4.38,5.25,1.65-.73,4.77-3.18,4.77-4.86A.36.36,0,0,0,127.68,60.14Z"/><path class="cls-2" d="M144.34,60.26c-1.08.7-7.58,4.89-7.58,5.59,0,.09.07.12.18.12.4,0,.68-.12,1.08-.12,1.44,0,1.08,1.22,2,1.22a3.51,3.51,0,0,0,2.37-1.34l1-1a.84.84,0,0,1,.61-.22.6.6,0,0,1,.61.65,1,1,0,0,1-.29.61,23.58,23.58,0,0,1-4.66,4.3,4,4,0,0,1-2,.52c-1.48,0-2.34-.91-3.67-.91-1.18,0-1.58.82-2.33.82a.53.53,0,0,1-.61-.55,1.3,1.3,0,0,1,.07-.33c.9-2.6,5-5.69,7.47-7.34-.86-.09-1.54-.76-2.3-.76a1.78,1.78,0,0,0-1.22.52,43.42,43.42,0,0,0-3.45,3.33l-1,1a.87.87,0,0,1-.61.21.65.65,0,0,1-.72-.58.77.77,0,0,1,.21-.52c.94-1,1.76-1.8,2.66-2.69a37.79,37.79,0,0,1,3.37-3.2,4.11,4.11,0,0,1,2.59-1.07c1.36,0,2.26,1.13,3.59,1.13s1.54-1,2.55-1a.72.72,0,0,1,.79.64A1.43,1.43,0,0,1,144.34,60.26Z"/><path class="cls-3" d="M127.47,7.24a18.35,18.35,0,1,0,8.74,24.44A18.29,18.29,0,0,0,127.47,7.24Zm-13.1,27.81a12.39,12.39,0,1,1,16.45-5.92A12.41,12.41,0,0,1,114.37,35.05Z"/><polygon class="cls-3" points="132.23 3.77 124.99 19.15 119.87 16.72 127.12 1.34 132.23 3.77"/><polygon class="cls-3" points="119.41 30.98 112.17 46.36 107.05 43.94 114.3 28.56 119.41 30.98"/><polygon class="cls-3" points="114.95 18.48 112.54 23.61 97.2 16.34 99.61 11.22 114.95 18.48"/><polygon class="cls-3" points="142.1 31.34 139.68 36.46 124.34 29.2 126.76 24.07 142.1 31.34"/><polygon class="cls-1" points="120.88 31.64 113.63 47.02 112.1 46.29 119.34 30.91 120.88 31.64"/><polygon class="cls-1" points="114.52 27.95 107.28 43.33 105.75 42.6 112.99 27.22 114.52 27.95"/><polygon class="cls-1" points="133.95 4.11 126.7 19.49 125.17 18.76 132.41 3.38 133.95 4.11"/><polygon class="cls-1" points="127.04 1.52 119.79 16.9 118.26 16.18 125.5 0.8 127.04 1.52"/><polygon class="cls-1" points="141.25 30.91 125.91 23.65 126.64 22.11 141.98 29.38 141.25 30.91"/><polygon class="cls-1" points="137.8 37.46 122.46 30.2 123.18 28.66 138.52 35.92 137.8 37.46"/><polygon class="cls-1" points="112.22 25.34 96.88 18.08 97.6 16.54 112.94 23.8 112.22 25.34"/><polygon class="cls-1" points="113.05 17.65 97.71 10.39 98.44 8.85 113.78 16.11 113.05 17.65"/></g></g></svg>