<svg xmlns="http://www.w3.org/2000/svg" viewBox="0 0 107.66 107.66"><defs><style>.cls-1{fill:#948484;}.cls-2{fill:#817374;}</style></defs><g id="Layer_2" data-name="Layer 2"><g id="Layer_1-2" data-name="Layer 1"><rect class="cls-1" width="107.66" height="107.66"/><path class="cls-2" d="M61.62,37a18.36,18.36,0,1,0,8.77,24.44A18.36,18.36,0,0,0,61.62,37ZM48.49,64.81A12.4,12.4,0,1,1,65,58.89,12.41,12.41,0,0,1,48.49,64.81Z"/><rect class="cls-2" x="51.7" y="37.17" width="17.01" height="5.67" transform="translate(-1.68 77.36) rotate(-64.72)"/><rect class="cls-2" x="38.85" y="64.39" width="17.01" height="5.67" transform="translate(-33.65 81.33) rotate(-64.72)"/><rect class="cls-2" x="37.34" y="38.67" width="5.67" height="17.01" transform="translate(-19.63 63.35) rotate(-64.72)"/><rect class="cls-2" x="64.56" y="51.52" width="5.67" height="17.01" transform="translate(-15.66 95.33) rotate(-64.72)"/><rect class="cls-1" x="42.11" y="67.87" width="17.01" height="1.7" transform="translate(-33.14 85.15) rotate(-64.72)"/><rect class="cls-1" x="35.74" y="64.18" width="17.01" height="1.7" transform="translate(-33.45 77.27) rotate(-64.72)"/><rect class="cls-1" x="55.21" y="40.34" width="17.01" height="1.7" transform="translate(-0.74 81.22) rotate(-64.72)"/><rect class="cls-1" x="48.29" y="37.76" width="17.01" height="1.7" transform="translate(-2.37 73.47) rotate(-64.72)"/><rect class="cls-1" x="67.27" y="47.77" width="1.7" height="17.01" transform="translate(-11.85 93.84) rotate(-64.72)"/><rect class="cls-1" x="63.8" y="54.32" width="1.7" height="17.01" transform="translate(-19.76 94.46) rotate(-64.72)"/><rect class="cls-1" x="38.16" y="42.19" width="1.7" height="17.01" transform="translate(-23.49 64.32) rotate(-64.72)"/><rect class="cls-1" x="39" y="34.5" width="1.7" height="17.01" transform="translate(-16.06 60.67) rotate(-64.72)"/></g></g></svg>