<svg xmlns="http://www.w3.org/2000/svg" viewBox="0 0 231.32 215.32"><defs><style>.cls-1{fill:#948484;}.cls-2{fill:#817374;}.cls-3{fill:none;}</style></defs><g id="Layer_2" data-name="Layer 2"><g id="Layer_1-2" data-name="Layer 1"><path class="cls-1" d="M16.86,0V107.66H124.52V0ZM23,102.6l-5.12-2.42,2.37-5,2.59-5.47a16.71,16.71,0,0,1,2.65,1,17.56,17.56,0,0,1,2.47,1.41l-2.59,5.49-2.19,4.63Z"/><path class="cls-2" d="M78.49,37a18.36,18.36,0,1,0,8.76,24.44A18.36,18.36,0,0,0,78.49,37ZM65.35,64.81a12.4,12.4,0,1,1,16.5-5.92A12.39,12.39,0,0,1,65.35,64.81Z"/><rect class="cls-2" x="68.57" y="37.17" width="17.01" height="5.67" transform="translate(7.98 92.61) rotate(-64.72)"/><rect class="cls-2" x="55.71" y="64.39" width="17.01" height="5.67" transform="translate(-23.99 96.58) rotate(-64.72)"/><rect class="cls-2" x="54.21" y="38.67" width="5.67" height="17.01" transform="translate(-9.98 78.61) rotate(-64.72)"/><rect class="cls-2" x="81.42" y="51.52" width="5.67" height="17.01" transform="translate(-6 110.58) rotate(-64.72)"/><rect class="cls-1" x="58.98" y="67.88" width="17.01" height="1.7" transform="translate(-23.48 100.4) rotate(-64.72)"/><rect class="cls-1" x="52.61" y="64.19" width="17.01" height="1.7" transform="translate(-23.79 92.52) rotate(-64.72)"/><rect class="cls-1" x="72.08" y="40.35" width="17.01" height="1.7" transform="translate(8.92 96.47) rotate(-64.72)"/><rect class="cls-1" x="65.15" y="37.76" width="17.01" height="1.7" transform="translate(7.29 88.73) rotate(-64.72)"/><rect class="cls-1" x="84.13" y="47.77" width="1.7" height="17.01" transform="translate(-2.19 109.09) rotate(-64.72)"/><rect class="cls-1" x="80.67" y="54.32" width="1.7" height="17.01" transform="translate(-10.1 109.71) rotate(-64.72)"/><rect class="cls-1" x="55.03" y="42.2" width="1.7" height="17.01" transform="translate(-13.83 79.57) rotate(-64.72)"/><rect class="cls-1" x="55.86" y="34.51" width="1.7" height="17.01" transform="translate(-6.4 75.92) rotate(-64.72)"/><rect class="cls-1" x="123.66" width="107.66" height="107.66"/><path class="cls-2" d="M185.29,37a18.36,18.36,0,1,0,8.76,24.44A18.36,18.36,0,0,0,185.29,37ZM172.15,64.81a12.4,12.4,0,1,1,16.5-5.92A12.39,12.39,0,0,1,172.15,64.81Z"/><rect class="cls-2" x="175.37" y="37.17" width="17.01" height="5.67" transform="translate(69.17 189.18) rotate(-64.72)"/><rect class="cls-2" x="162.51" y="64.39" width="17.01" height="5.67" transform="translate(37.2 193.15) rotate(-64.72)"/><rect class="cls-2" x="161.01" y="38.67" width="5.67" height="17.01" transform="translate(51.22 175.18) rotate(-64.72)"/><rect class="cls-2" x="188.22" y="51.52" width="5.67" height="17.01" transform="translate(55.19 207.15) rotate(-64.72)"/><rect class="cls-1" x="165.78" y="67.88" width="17.01" height="1.7" transform="translate(37.71 196.97) rotate(-64.72)"/><rect class="cls-1" x="159.41" y="64.19" width="17.01" height="1.7" transform="translate(37.4 189.1) rotate(-64.72)"/><rect class="cls-1" x="178.88" y="40.35" width="17.01" height="1.7" transform="translate(70.11 193.04) rotate(-64.72)"/><rect class="cls-1" x="171.95" y="37.76" width="17.01" height="1.7" transform="translate(68.48 185.3) rotate(-64.72)"/><rect class="cls-1" x="190.93" y="47.77" width="1.7" height="17.01" transform="translate(59 205.66) rotate(-64.72)"/><rect class="cls-1" x="187.47" y="54.32" width="1.7" height="17.01" transform="translate(51.09 206.28) rotate(-64.72)"/><rect class="cls-1" x="161.83" y="42.2" width="1.7" height="17.01" transform="translate(47.36 176.15) rotate(-64.72)"/><rect class="cls-1" x="162.66" y="34.51" width="1.7" height="17.01" transform="translate(54.8 172.5) rotate(-64.72)"/><path class="cls-1" d="M124.52,107.66V215.32H16.86V125.64A18.39,18.39,0,0,0,31.76,119l-5.67-2.68a12.37,12.37,0,0,1-9.23,3.34v-12Z"/><path class="cls-2" d="M78.49,144.66a18.36,18.36,0,1,0,8.76,24.44A18.36,18.36,0,0,0,78.49,144.66ZM65.35,172.47a12.4,12.4,0,1,1,16.5-5.92A12.39,12.39,0,0,1,65.35,172.47Z"/><rect class="cls-2" x="68.57" y="144.83" width="17.01" height="5.67" transform="translate(-89.37 154.29) rotate(-64.72)"/><rect class="cls-2" x="55.71" y="172.05" width="17.01" height="5.67" transform="translate(-121.34 158.27) rotate(-64.72)"/><rect class="cls-2" x="54.21" y="146.33" width="5.67" height="17.01" transform="translate(-107.32 140.29) rotate(-64.72)"/><rect class="cls-2" x="81.42" y="159.18" width="5.67" height="17.01" transform="translate(-103.35 172.27) rotate(-64.72)"/><rect class="cls-1" x="58.98" y="175.54" width="17.01" height="1.7" transform="translate(-120.83 162.09) rotate(-64.72)"/><rect class="cls-1" x="52.61" y="171.85" width="17.01" height="1.7" transform="translate(-121.14 154.21) rotate(-64.72)"/><rect class="cls-1" x="72.08" y="148.01" width="17.01" height="1.7" transform="translate(-88.43 158.16) rotate(-64.72)"/><rect class="cls-1" x="65.15" y="145.42" width="17.01" height="1.7" transform="translate(-90.06 150.41) rotate(-64.72)"/><rect class="cls-1" x="84.13" y="155.43" width="1.7" height="17.01" transform="translate(-99.54 170.78) rotate(-64.72)"/><rect class="cls-1" x="80.67" y="161.98" width="1.7" height="17.01" transform="translate(-107.45 171.4) rotate(-64.72)"/><rect class="cls-1" x="55.03" y="149.86" width="1.7" height="17.01" transform="translate(-111.18 141.26) rotate(-64.72)"/><rect class="cls-1" x="55.86" y="142.17" width="1.7" height="17.01" transform="translate(-103.75 137.61) rotate(-64.72)"/><rect class="cls-1" x="123.66" y="107.66" width="107.66" height="107.66"/><path class="cls-2" d="M185.29,144.66a18.36,18.36,0,1,0,8.76,24.44A18.36,18.36,0,0,0,185.29,144.66Zm-13.14,27.81a12.4,12.4,0,1,1,16.5-5.92A12.39,12.39,0,0,1,172.15,172.47Z"/><rect class="cls-2" x="175.37" y="144.83" width="17.01" height="5.67" transform="translate(-28.18 250.87) rotate(-64.72)"/><rect class="cls-2" x="162.51" y="172.05" width="17.01" height="5.67" transform="translate(-60.15 254.84) rotate(-64.72)"/><rect class="cls-2" x="161.01" y="146.33" width="5.67" height="17.01" transform="translate(-46.13 236.86) rotate(-64.72)"/><rect class="cls-2" x="188.22" y="159.18" width="5.67" height="17.01" transform="translate(-42.16 268.84) rotate(-64.72)"/><rect class="cls-1" x="165.78" y="175.54" width="17.01" height="1.7" transform="translate(-59.64 258.66) rotate(-64.72)"/><rect class="cls-1" x="159.41" y="171.85" width="17.01" height="1.7" transform="translate(-59.95 250.78) rotate(-64.72)"/><rect class="cls-1" x="178.88" y="148.01" width="17.01" height="1.7" transform="translate(-27.24 254.73) rotate(-64.72)"/><rect class="cls-1" x="171.95" y="145.42" width="17.01" height="1.7" transform="translate(-28.87 246.98) rotate(-64.72)"/><rect class="cls-1" x="190.93" y="155.43" width="1.7" height="17.01" transform="translate(-38.35 267.35) rotate(-64.72)"/><rect class="cls-1" x="187.47" y="161.98" width="1.7" height="17.01" transform="translate(-46.26 267.97) rotate(-64.72)"/><rect class="cls-1" x="161.83" y="149.86" width="1.7" height="17.01" transform="translate(-49.99 237.83) rotate(-64.72)"/><rect class="cls-1" x="162.66" y="142.17" width="1.7" height="17.01" transform="translate(-42.55 234.18) rotate(-64.72)"/><path class="cls-2" d="M133,91a18.36,18.36,0,1,0,8.76,24.45A18.36,18.36,0,0,0,133,91Zm-13.13,27.82a12.4,12.4,0,1,1,16.5-5.92A12.39,12.39,0,0,1,119.82,118.81Z"/><rect class="cls-2" x="123.03" y="91.17" width="17.01" height="5.67" transform="translate(-9.64 172.79) rotate(-64.72)"/><rect class="cls-2" x="110.17" y="118.38" width="17.01" height="5.67" transform="translate(-41.61 176.77) rotate(-64.72)"/><rect class="cls-2" x="108.67" y="92.67" width="5.67" height="17.01" transform="translate(-27.59 158.79) rotate(-64.72)"/><rect class="cls-2" x="135.89" y="105.52" width="5.67" height="17.01" transform="translate(-23.62 190.77) rotate(-64.72)"/><rect class="cls-1" x="113.44" y="121.87" width="17.01" height="1.7" transform="translate(-41.1 180.58) rotate(-64.72)"/><rect class="cls-1" x="107.07" y="118.18" width="17.01" height="1.7" transform="translate(-41.41 172.71) rotate(-64.72)"/><rect class="cls-1" x="126.54" y="94.34" width="17.01" height="1.7" transform="translate(-8.7 176.66) rotate(-64.72)"/><rect class="cls-1" x="119.62" y="91.75" width="17.01" height="1.7" transform="translate(-10.33 168.91) rotate(-64.72)"/><rect class="cls-1" x="138.6" y="101.77" width="1.7" height="17.01" transform="translate(-19.81 189.27) rotate(-64.72)"/><rect class="cls-1" x="135.13" y="108.31" width="1.7" height="17.01" transform="translate(-27.72 189.89) rotate(-64.72)"/><rect class="cls-1" x="109.49" y="96.19" width="1.7" height="17.01" transform="translate(-31.45 159.76) rotate(-64.72)"/><rect class="cls-1" x="110.32" y="88.5" width="1.7" height="17.01" transform="translate(-24.02 156.11) rotate(-64.72)"/><path class="cls-2" d="M133.11,90.69a18.36,18.36,0,1,0,8.76,24.45A18.36,18.36,0,0,0,133.11,90.69ZM120,118.51a12.4,12.4,0,1,1,16.5-5.92A12.4,12.4,0,0,1,120,118.51Z"/><rect class="cls-2" x="123.19" y="90.87" width="17.01" height="5.67" transform="translate(-9.27 172.77) rotate(-64.72)"/><rect class="cls-2" x="110.33" y="118.08" width="17.01" height="5.67" transform="translate(-41.25 176.74) rotate(-64.72)"/><rect class="cls-2" x="108.83" y="92.37" width="5.67" height="17.01" transform="translate(-27.23 158.76) rotate(-64.72)"/><rect class="cls-2" x="136.04" y="105.22" width="5.67" height="17.01" transform="translate(-23.26 190.74) rotate(-64.72)"/><rect class="cls-1" x="113.6" y="121.57" width="17.01" height="1.7" transform="translate(-40.74 180.56) rotate(-64.72)"/><rect class="cls-1" x="107.23" y="117.88" width="17.01" height="1.7" transform="translate(-41.05 172.68) rotate(-64.72)"/><rect class="cls-1" x="126.7" y="94.04" width="17.01" height="1.7" transform="translate(-8.34 176.63) rotate(-64.72)"/><rect class="cls-1" x="119.77" y="91.45" width="17.01" height="1.7" transform="translate(-9.97 168.88) rotate(-64.72)"/><rect class="cls-1" x="138.75" y="101.47" width="1.7" height="17.01" transform="translate(-19.45 189.25) rotate(-64.72)"/><rect class="cls-1" x="135.29" y="108.01" width="1.7" height="17.01" transform="translate(-27.36 189.87) rotate(-64.72)"/><rect class="cls-1" x="109.65" y="95.89" width="1.7" height="17.01" transform="translate(-31.09 159.73) rotate(-64.72)"/><rect class="cls-1" x="110.48" y="88.2" width="1.7" height="17.01" transform="translate(-23.65 156.08) rotate(-64.72)"/><path class="cls-2" d="M0,102.11a0,0,0,0,0,0,0l1,.44ZM22.79,89.68a14.18,14.18,0,0,0-1.68-.41A18,18,0,0,0,16.86,89v6a10.42,10.42,0,0,1,1.58,0,13.43,13.43,0,0,1,1.77.24l2.59-5.47Zm6.53,3.46c-.45-.36-.91-.71-1.4-1l-2.59,5.49a11.59,11.59,0,0,1,1.31,1.21A12.35,12.35,0,0,1,30,107.66c0,.15,0,.29,0,.44a11.94,11.94,0,0,1-.24,1.77h0a12.38,12.38,0,0,1-.92,2.71A12.17,12.17,0,0,1,27.3,115h0a11.59,11.59,0,0,1-1.21,1.31L31.76,119c.36-.44.71-.91,1-1.39h0a17.56,17.56,0,0,0,1.41-2.47,17.91,17.91,0,0,0,1-2.66v0a14.38,14.38,0,0,0,.42-1.69,17.27,17.27,0,0,0,.32-3.11A18.4,18.4,0,0,0,29.32,93.14Z"/><path class="cls-2" d="M31.76,119a18.39,18.39,0,0,1-14.9,6.63v-6a12.37,12.37,0,0,0,9.23-3.34Z"/><path class="cls-2" d="M27.92,92.1l-2.59,5.49a12.64,12.64,0,0,0-2.42-1.51,12.48,12.48,0,0,0-2.7-.92l2.59-5.47a16.71,16.71,0,0,1,2.65,1A17.56,17.56,0,0,1,27.92,92.1Z"/><path class="cls-2" d="M25.33,97.59l-2.19,4.63-.18.38-5.12-2.42,2.37-5a12.48,12.48,0,0,1,2.7.92A12.64,12.64,0,0,1,25.33,97.59Z"/><path class="cls-2" d="M30.23,87.22,27.92,92.1a17.56,17.56,0,0,0-2.47-1.41,16.71,16.71,0,0,0-2.65-1l-2.59,5.47,2.58-5.48L25,85l.08-.18Z"/><polygon class="cls-2" points="17.37 114.44 16.86 115.52 16.86 114.2 17.29 114.4 17.37 114.44"/><path class="cls-2" d="M1,102.56,0,102.12a0,0,0,0,1,0,0Z"/><rect class="cls-2" x="28.38" y="105.22" width="5.67" height="17.01" transform="translate(-84.95 93.39) rotate(-64.72)"/><path class="cls-3" d="M85.07,173.51v41.81h21.7a17.78,17.78,0,0,1,.33-3.55l-4.81-2.28L103,208l-.41-.19,2.4-5.07-1.88-.89.73-1.54,7.09,3.35a18.37,18.37,0,0,1,17.66-6.36l2.38-5,1.54.73.08-.18,5.13,2.42-2.32,4.9h0l2.5-5.28,1.54.73-2.65,5.59a18.39,18.39,0,0,1,6.66,14.2h17.43V173.51Z"/><path class="cls-3" d="M112.72,215.32h1.91l-1.88-.89C112.73,214.73,112.72,215,112.72,215.32Z"/><path class="cls-3" d="M132.18,210.91l-1.53-.73,2.18-4.62h0l-2.37,5-5.12-2.42-.08.18-1.54-.73,2.22-4.7a12.41,12.41,0,0,0-9.36,3.38l2.65,1.26-.7,1.48,1.87.89L118,215l.41.2,0,.1h13.59l-.54-.25.73-1.54,3.79,1.79h1.58a12.41,12.41,0,0,0-3.35-8.55Z"/><polygon class="cls-2" points="132.83 205.56 135.41 200.08 135.41 200.08 132.82 205.56 132.83 205.56"/><path class="cls-2" d="M112.75,214.43l-5.65-2.66a17.78,17.78,0,0,0-.33,3.55h6C112.72,215,112.73,214.73,112.75,214.43Z"/><path class="cls-2" d="M125.94,202.89l2.66-5.64a18.37,18.37,0,0,0-17.66,6.36l5.64,2.66A12.41,12.41,0,0,1,125.94,202.89Z"/><path class="cls-2" d="M136.8,201.12l-2.66,5.65a12.41,12.41,0,0,1,3.35,8.55h6A18.39,18.39,0,0,0,136.8,201.12Z"/><polygon class="cls-2" points="125.34 208.14 130.46 210.56 132.82 205.56 135.41 200.08 137.73 195.18 132.6 192.76 132.52 192.94 132.52 192.94 125.34 208.14"/><polygon class="cls-2" points="117.98 215.02 120.4 209.9 118.53 209.01 118.5 209.06 105 202.69 102.6 207.76 103.01 207.95 103.01 207.95 117.98 215.02"/><polygon class="cls-1" points="130.65 210.18 132.18 210.91 134.14 206.77 136.8 201.12 139.45 195.53 137.91 194.8 135.41 200.08 132.83 205.56 130.65 210.18"/><polygon class="cls-1" points="123.72 207.59 125.26 208.32 125.34 208.14 132.52 192.94 132.52 192.94 130.98 192.21 128.6 197.25 125.94 202.89 123.72 207.59"/><polygon class="cls-1" points="131.39 215.07 131.93 215.32 135.91 215.32 132.12 213.53 131.39 215.07"/><polygon class="cls-1" points="117.98 215.02 103.01 207.95 103.01 207.95 102.29 209.49 107.11 211.77 112.75 214.43 114.63 215.32 118.34 215.32 118.39 215.22 117.98 215.02"/><polygon class="cls-1" points="118.5 209.06 118.53 209.01 119.23 207.53 116.58 206.28 110.94 203.61 103.85 200.26 103.12 201.8 105 202.69 118.5 209.06"/><path class="cls-3" d="M227,99.57l-.7,1.48,1.87.89-2.42,5.12.41.2-.73,1.54-4.91-2.33a12.44,12.44,0,0,0,3.29,9.28l2.4-5.07,1.53.73L225.09,117l0,0,2.35-5,3.83,1.81V95a12.45,12.45,0,0,0-7,3.32Z"/><path class="cls-3" d="M229.27,125.29l-2.45,5.19-1.46-.69v0l-5.13-2.42,2.33-4.93-.05,0-2.05,4.34-1.54-.72,2.21-4.67a18.34,18.34,0,0,1-6.28-17.58L210,101.53l.72-1.54-.41-.19,2.4-5.07-1.88-.89.73-1.54,7.09,3.35A18.41,18.41,0,0,1,231.32,89V73.09H202.88v73.18h28.44V125.58C230.64,125.52,230,125.42,229.27,125.29Z"/><path class="cls-2" d="M218.68,95.65l5.63,2.67a12.45,12.45,0,0,1,7-3.32V89A18.41,18.41,0,0,0,218.68,95.65Z"/><path class="cls-2" d="M220.49,106.47l-5.65-2.66a18.34,18.34,0,0,0,6.28,17.58l2.66-5.64A12.44,12.44,0,0,1,220.49,106.47Z"/><path class="cls-2" d="M225.09,117l-2.59,5.48.05,0,2.59-5.48Z"/><path class="cls-2" d="M231.32,125.58v-4.64l-2,4.35C230,125.42,230.64,125.52,231.32,125.58Z"/><polygon class="cls-2" points="225.14 116.99 222.55 122.47 220.22 127.4 225.35 129.82 225.36 129.79 225.28 129.75 231.32 116.96 231.32 113.83 227.49 112.02 225.14 116.99"/><polygon class="cls-2" points="225.72 107.06 228.14 101.94 226.26 101.05 226.24 101.11 212.74 94.73 210.34 99.8 210.75 100 210.75 99.99 225.72 107.06"/><polygon class="cls-1" points="225.28 129.75 225.36 129.79 226.82 130.48 229.27 125.29 231.32 120.94 231.32 116.96 225.28 129.75"/><polygon class="cls-1" points="227.71 111.41 226.18 110.68 223.78 115.75 221.12 121.39 218.91 126.06 220.45 126.78 222.5 122.44 225.09 116.96 227.71 111.41"/><polygon class="cls-1" points="225.41 108.8 226.13 107.26 225.72 107.06 210.75 99.99 210.75 100 210.03 101.53 214.84 103.81 220.49 106.47 225.41 108.8"/><polygon class="cls-1" points="226.24 101.11 226.26 101.05 226.97 99.57 224.31 98.31 218.68 95.65 211.59 92.31 210.86 93.84 212.74 94.73 226.24 101.11"/><path class="cls-3" d="M137.38,2.2,132.73,0h0l4.69,2.22Z"/><path class="cls-3" d="M143.62,0a18.27,18.27,0,0,1-.34,3.11l4.38,2.06-.73,1.54-4.06-1.92v0l4.92,2.32-2.42,5.13-4.92-2.32h0l3.75,1.77-.72,1.54-4.07-1.92a18.38,18.38,0,0,1-17.71,6.29l-2.45,5.19-1.46-.69v0l-5.13-2.42L115,14.81l0,0-2,4.34-1.54-.72,2.21-4.67A18.36,18.36,0,0,1,106.93,0H89V28h68V0Z"/><path class="cls-3" d="M137.65,0h-.94l.92.44C137.64.29,137.65.15,137.65,0Z"/><path class="cls-3" d="M118.6,3l1.53.73L117.51,9.3l0,0,2.35-5,5,2.38,0,0,1.53.73L124.35,12a12.41,12.41,0,0,0,9.39-3.32L128.09,6l.72-1.54L135,7.36h0L130,5l2.36-5h-14l-.54,1.14L115.43,0h-2.55a12.51,12.51,0,0,0,3.32,8.09Z"/><path class="cls-2" d="M113.54,13.73l2.66-5.64A12.51,12.51,0,0,1,112.88,0h-5.95A18.36,18.36,0,0,0,113.54,13.73Z"/><path class="cls-2" d="M137.38,2.22l5.48,2.59v0L137.38,2.2Z"/><path class="cls-2" d="M137.63.44l5.65,2.67A18.27,18.27,0,0,0,143.62,0h-6C137.65.15,137.64.29,137.63.44Z"/><polygon class="cls-2" points="134.95 7.36 140.44 9.95 140.44 9.94 134.96 7.35 134.95 7.36"/><path class="cls-2" d="M117.51,9.3l-2.59,5.48,0,0,2.59-5.48Z"/><path class="cls-2" d="M124.35,12l-2.66,5.64a18.38,18.38,0,0,0,17.71-6.29l-5.66-2.67A12.41,12.41,0,0,1,124.35,12Z"/><polygon class="cls-2" points="124.95 6.74 119.91 4.36 117.56 9.33 114.97 14.81 112.64 19.74 117.77 22.16 117.78 22.13 117.7 22.09 124.95 6.74"/><polygon class="cls-2" points="134.96 7.35 140.44 9.94 145.36 12.26 147.78 7.13 142.87 4.81 137.38 2.22 132.69 0 132.34 0 129.98 5 134.96 7.35"/><polygon class="cls-1" points="126.5 7.44 124.97 6.71 124.95 6.74 117.7 22.09 117.78 22.13 119.24 22.82 121.69 17.63 124.35 11.99 126.5 7.44"/><polygon class="cls-1" points="120.13 3.75 118.6 3.02 116.2 8.09 113.54 13.73 111.33 18.4 112.87 19.12 114.92 14.78 117.51 9.3 120.13 3.75"/><polygon class="cls-1" points="142.87 4.79 146.93 6.71 147.66 5.17 143.28 3.11 137.63 0.44 136.71 0 132.73 0 137.38 2.2 142.87 4.79"/><polygon class="cls-1" points="128.81 4.46 128.09 6 133.74 8.67 139.4 11.34 143.47 13.26 144.19 11.72 140.44 9.95 134.95 7.36 128.81 4.46"/><polygon class="cls-1" points="118.36 0 115.43 0 117.82 1.14 118.36 0"/></g></g></svg>