<svg xmlns="http://www.w3.org/2000/svg" viewBox="0 0 214.47 215.32"><defs><style>.cls-1{fill:#948484;}.cls-2{fill:#817374;}.cls-3{fill:none;}</style></defs><g id="Layer_2" data-name="Layer 2"><g id="Layer_1-2" data-name="Layer 1"><rect class="cls-1" y="71.97" width="28.72" height="66.8"/><path class="cls-1" d="M0,0V107.66H107.66V0ZM6.1,102.6,1,100.18l2.37-5,2.59-5.47a16.71,16.71,0,0,1,2.65,1,17.56,17.56,0,0,1,2.47,1.41L8.47,97.59l-2.19,4.63Z"/><path class="cls-2" d="M61.63,37a18.36,18.36,0,1,0,8.76,24.44A18.36,18.36,0,0,0,61.63,37ZM48.5,64.81A12.4,12.4,0,1,1,65,58.89,12.39,12.39,0,0,1,48.5,64.81Z"/><rect class="cls-2" x="51.71" y="37.17" width="17.01" height="5.67" transform="translate(-1.68 77.37) rotate(-64.72)"/><rect class="cls-2" x="38.86" y="64.39" width="17.01" height="5.67" transform="translate(-33.65 81.34) rotate(-64.72)"/><rect class="cls-2" x="37.35" y="38.67" width="5.67" height="17.01" transform="translate(-19.63 63.36) rotate(-64.72)"/><rect class="cls-2" x="64.57" y="51.52" width="5.67" height="17.01" transform="translate(-15.66 95.34) rotate(-64.72)"/><rect class="cls-1" x="42.12" y="67.88" width="17.01" height="1.7" transform="translate(-33.14 85.16) rotate(-64.72)"/><rect class="cls-1" x="35.75" y="64.19" width="17.01" height="1.7" transform="translate(-33.45 77.28) rotate(-64.72)"/><rect class="cls-1" x="55.22" y="40.35" width="17.01" height="1.7" transform="translate(-0.74 81.23) rotate(-64.72)"/><rect class="cls-1" x="48.3" y="37.76" width="17.01" height="1.7" transform="translate(-2.37 73.48) rotate(-64.72)"/><rect class="cls-1" x="67.28" y="47.77" width="1.7" height="17.01" transform="translate(-11.85 93.85) rotate(-64.72)"/><rect class="cls-1" x="63.81" y="54.32" width="1.7" height="17.01" transform="translate(-19.76 94.47) rotate(-64.72)"/><rect class="cls-1" x="38.17" y="42.2" width="1.7" height="17.01" transform="translate(-23.49 64.33) rotate(-64.72)"/><rect class="cls-1" x="39.01" y="34.51" width="1.7" height="17.01" transform="translate(-16.06 60.68) rotate(-64.72)"/><rect class="cls-1" x="106.81" width="107.66" height="107.66"/><path class="cls-2" d="M168.43,37a18.36,18.36,0,1,0,8.77,24.44A18.36,18.36,0,0,0,168.43,37ZM155.3,64.81a12.4,12.4,0,1,1,16.5-5.92A12.39,12.39,0,0,1,155.3,64.81Z"/><rect class="cls-2" x="158.51" y="37.17" width="17.01" height="5.67" transform="translate(59.52 173.94) rotate(-64.72)"/><rect class="cls-2" x="145.66" y="64.39" width="17.01" height="5.67" transform="translate(27.54 177.91) rotate(-64.72)"/><rect class="cls-2" x="144.15" y="38.67" width="5.67" height="17.01" transform="translate(41.56 159.94) rotate(-64.72)"/><rect class="cls-2" x="171.37" y="51.52" width="5.67" height="17.01" transform="translate(45.53 191.91) rotate(-64.72)"/><rect class="cls-1" x="148.92" y="67.88" width="17.01" height="1.7" transform="translate(28.05 181.73) rotate(-64.72)"/><rect class="cls-1" x="142.55" y="64.19" width="17.01" height="1.7" transform="translate(27.74 173.86) rotate(-64.72)"/><rect class="cls-1" x="162.02" y="40.35" width="17.01" height="1.7" transform="translate(60.45 177.8) rotate(-64.72)"/><rect class="cls-1" x="155.1" y="37.76" width="17.01" height="1.7" transform="translate(58.83 170.06) rotate(-64.72)"/><rect class="cls-1" x="174.08" y="47.77" width="1.7" height="17.01" transform="translate(49.34 190.42) rotate(-64.72)"/><rect class="cls-1" x="170.61" y="54.32" width="1.7" height="17.01" transform="translate(41.44 191.04) rotate(-64.72)"/><rect class="cls-1" x="144.97" y="42.2" width="1.7" height="17.01" transform="translate(37.71 160.91) rotate(-64.72)"/><rect class="cls-1" x="145.81" y="34.51" width="1.7" height="17.01" transform="translate(45.14 157.26) rotate(-64.72)"/><path class="cls-1" d="M107.66,107.66V215.32H0V125.64A18.39,18.39,0,0,0,14.9,119l-5.67-2.68A12.37,12.37,0,0,1,0,119.67v-12Z"/><path class="cls-2" d="M61.63,144.66a18.36,18.36,0,1,0,8.76,24.44A18.36,18.36,0,0,0,61.63,144.66ZM48.5,172.47A12.4,12.4,0,1,1,65,166.55,12.39,12.39,0,0,1,48.5,172.47Z"/><rect class="cls-2" x="51.71" y="144.83" width="17.01" height="5.67" transform="translate(-99.02 139.05) rotate(-64.72)"/><rect class="cls-2" x="38.86" y="172.05" width="17.01" height="5.67" transform="translate(-131 143.02) rotate(-64.72)"/><rect class="cls-2" x="37.35" y="146.33" width="5.67" height="17.01" transform="translate(-116.98 125.05) rotate(-64.72)"/><rect class="cls-2" x="64.57" y="159.18" width="5.67" height="17.01" transform="translate(-113.01 157.02) rotate(-64.72)"/><rect class="cls-1" x="42.12" y="175.54" width="17.01" height="1.7" transform="translate(-130.49 146.84) rotate(-64.72)"/><rect class="cls-1" x="35.75" y="171.85" width="17.01" height="1.7" transform="translate(-130.8 138.97) rotate(-64.72)"/><rect class="cls-1" x="55.22" y="148.01" width="17.01" height="1.7" transform="translate(-98.09 142.92) rotate(-64.72)"/><rect class="cls-1" x="48.3" y="145.42" width="17.01" height="1.7" transform="translate(-99.72 135.17) rotate(-64.72)"/><rect class="cls-1" x="67.28" y="155.43" width="1.7" height="17.01" transform="translate(-109.2 155.53) rotate(-64.72)"/><rect class="cls-1" x="63.81" y="161.98" width="1.7" height="17.01" transform="translate(-117.11 156.15) rotate(-64.72)"/><rect class="cls-1" x="38.17" y="149.86" width="1.7" height="17.01" transform="translate(-120.84 126.02) rotate(-64.72)"/><rect class="cls-1" x="39.01" y="142.17" width="1.7" height="17.01" transform="translate(-113.41 122.37) rotate(-64.72)"/><rect class="cls-1" x="106.81" y="107.66" width="107.66" height="107.66"/><path class="cls-2" d="M168.43,144.66a18.36,18.36,0,1,0,8.77,24.44A18.36,18.36,0,0,0,168.43,144.66ZM155.3,172.47a12.4,12.4,0,1,1,16.5-5.92A12.39,12.39,0,0,1,155.3,172.47Z"/><rect class="cls-2" x="158.51" y="144.83" width="17.01" height="5.67" transform="translate(-37.83 235.63) rotate(-64.72)"/><rect class="cls-2" x="145.66" y="172.05" width="17.01" height="5.67" transform="translate(-69.81 239.6) rotate(-64.72)"/><rect class="cls-2" x="144.15" y="146.33" width="5.67" height="17.01" transform="translate(-55.79 221.62) rotate(-64.72)"/><rect class="cls-2" x="171.37" y="159.18" width="5.67" height="17.01" transform="translate(-51.82 253.6) rotate(-64.72)"/><rect class="cls-1" x="148.92" y="175.54" width="17.01" height="1.7" transform="translate(-69.3 243.42) rotate(-64.72)"/><rect class="cls-1" x="142.55" y="171.85" width="17.01" height="1.7" transform="translate(-69.61 235.54) rotate(-64.72)"/><rect class="cls-1" x="162.02" y="148.01" width="17.01" height="1.7" transform="translate(-36.9 239.49) rotate(-64.72)"/><rect class="cls-1" x="155.1" y="145.42" width="17.01" height="1.7" transform="translate(-38.52 231.74) rotate(-64.72)"/><rect class="cls-1" x="174.08" y="155.43" width="1.7" height="17.01" transform="translate(-48.01 252.11) rotate(-64.72)"/><rect class="cls-1" x="170.61" y="161.98" width="1.7" height="17.01" transform="translate(-55.91 252.73) rotate(-64.72)"/><rect class="cls-1" x="144.97" y="149.86" width="1.7" height="17.01" transform="translate(-59.64 222.59) rotate(-64.72)"/><rect class="cls-1" x="145.81" y="142.17" width="1.7" height="17.01" transform="translate(-52.21 218.94) rotate(-64.72)"/><path class="cls-2" d="M116.1,91a18.36,18.36,0,1,0,8.76,24.45A18.37,18.37,0,0,0,116.1,91ZM103,118.81a12.4,12.4,0,1,1,16.5-5.92A12.41,12.41,0,0,1,103,118.81Z"/><rect class="cls-2" x="106.17" y="91.17" width="17.01" height="5.67" transform="translate(-19.29 157.55) rotate(-64.72)"/><rect class="cls-2" x="93.32" y="118.38" width="17.01" height="5.67" transform="translate(-51.27 161.52) rotate(-64.72)"/><rect class="cls-2" x="91.81" y="92.67" width="5.67" height="17.01" transform="translate(-37.25 143.55) rotate(-64.72)"/><rect class="cls-2" x="119.03" y="105.52" width="5.67" height="17.01" transform="translate(-33.28 175.52) rotate(-64.72)"/><rect class="cls-1" x="96.59" y="121.87" width="17.01" height="1.7" transform="translate(-50.76 165.34) rotate(-64.72)"/><rect class="cls-1" x="90.22" y="118.18" width="17.01" height="1.7" transform="translate(-51.07 157.47) rotate(-64.72)"/><rect class="cls-1" x="109.69" y="94.34" width="17.01" height="1.7" transform="translate(-18.36 161.42) rotate(-64.72)"/><rect class="cls-1" x="102.76" y="91.75" width="17.01" height="1.7" transform="translate(-19.99 153.67) rotate(-64.72)"/><rect class="cls-1" x="121.74" y="101.77" width="1.7" height="17.01" transform="translate(-29.47 174.03) rotate(-64.72)"/><rect class="cls-1" x="118.28" y="108.31" width="1.7" height="17.01" transform="translate(-37.38 174.65) rotate(-64.72)"/><rect class="cls-1" x="92.63" y="96.19" width="1.7" height="17.01" transform="translate(-41.11 144.52) rotate(-64.72)"/><rect class="cls-1" x="93.47" y="88.5" width="1.7" height="17.01" transform="translate(-33.67 140.87) rotate(-64.72)"/><path class="cls-3" d="M68.21,173.51v41.81h21.7a18.56,18.56,0,0,1,.34-3.55l-4.82-2.28.73-1.54-.41-.19,2.39-5.07-1.87-.89.72-1.54,7.09,3.35a18.38,18.38,0,0,1,17.67-6.36l2.38-5,1.53.73.09-.18,5.12,2.42-2.31,4.9h0l2.49-5.28,1.54.73L120,201.12a18.41,18.41,0,0,1,6.65,14.2H144V173.51Z"/><path class="cls-3" d="M95.87,215.32h1.9l-1.88-.89C95.87,214.73,95.87,215,95.87,215.32Z"/><path class="cls-3" d="M115.33,210.91l-1.54-.73,2.18-4.62h0l-2.36,5-5.13-2.42-.08.18-1.54-.73,2.22-4.7a12.42,12.42,0,0,0-9.36,3.38l2.65,1.26-.7,1.48,1.88.89L101.13,215l.41.2-.05.1h13.58l-.53-.25.72-1.54,3.8,1.79h1.58a12.42,12.42,0,0,0-3.36-8.55Z"/><polygon class="cls-2" points="115.97 205.56 118.56 200.08 118.56 200.08 115.97 205.56 115.97 205.56"/><path class="cls-2" d="M95.89,214.43l-5.64-2.66a18.56,18.56,0,0,0-.34,3.55h6C95.87,215,95.87,214.73,95.89,214.43Z"/><path class="cls-2" d="M109.08,202.89l2.67-5.64a18.38,18.38,0,0,0-17.67,6.36l5.64,2.66A12.42,12.42,0,0,1,109.08,202.89Z"/><path class="cls-2" d="M120,201.12l-2.67,5.65a12.42,12.42,0,0,1,3.36,8.55h6A18.41,18.41,0,0,0,120,201.12Z"/><polygon class="cls-2" points="108.48 208.14 113.61 210.56 115.97 205.56 118.56 200.08 120.87 195.18 115.75 192.76 115.66 192.94 115.66 192.94 108.48 208.14"/><polygon class="cls-2" points="101.13 215.02 103.55 209.9 101.67 209.01 101.64 209.06 88.14 202.69 85.75 207.76 86.16 207.95 86.16 207.95 101.13 215.02"/><polygon class="cls-1" points="113.79 210.18 115.33 210.91 117.28 206.77 119.95 201.12 122.59 195.53 121.05 194.8 118.56 200.08 115.97 205.56 113.79 210.18"/><polygon class="cls-1" points="106.86 207.59 108.4 208.32 108.48 208.14 115.66 192.94 115.66 192.94 114.13 192.21 111.75 197.25 109.08 202.89 106.86 207.59"/><polygon class="cls-1" points="114.54 215.07 115.07 215.32 119.06 215.32 115.26 213.53 114.54 215.07"/><polygon class="cls-1" points="101.13 215.02 86.16 207.95 86.16 207.95 85.43 209.49 90.25 211.77 95.89 214.43 97.77 215.32 101.49 215.32 101.54 215.22 101.13 215.02"/><polygon class="cls-1" points="101.64 209.06 101.67 209.01 102.37 207.53 99.72 206.28 94.08 203.61 86.99 200.26 86.27 201.8 88.14 202.69 101.64 209.06"/><path class="cls-3" d="M210.11,99.57l-.7,1.48,1.88.89-2.42,5.12.41.2-.73,1.54-4.92-2.33a12.41,12.41,0,0,0,3.3,9.28l2.39-5.07,1.54.73L208.24,117l0,0,2.35-5,3.84,1.81V95a12.42,12.42,0,0,0-7,3.32Z"/><path class="cls-3" d="M212.42,125.29,210,130.48l-1.46-.69,0,0-5.12-2.42,2.32-4.93,0,0-2.05,4.34-1.54-.72,2.2-4.67A18.34,18.34,0,0,1,198,103.81l-4.82-2.28.73-1.54-.41-.19,2.39-5.07L194,93.84l.72-1.54,7.09,3.35A18.44,18.44,0,0,1,214.47,89V73.09H186v73.18h28.45V125.58A20.22,20.22,0,0,1,212.42,125.29Z"/><path class="cls-2" d="M201.82,95.65l5.64,2.67a12.42,12.42,0,0,1,7-3.32V89A18.44,18.44,0,0,0,201.82,95.65Z"/><path class="cls-2" d="M203.63,106.47,198,103.81a18.34,18.34,0,0,0,6.27,17.58l2.67-5.64A12.41,12.41,0,0,1,203.63,106.47Z"/><path class="cls-2" d="M208.24,117l-2.59,5.48,0,0,2.59-5.48Z"/><path class="cls-2" d="M214.47,125.58v-4.64l-2.05,4.35A20.22,20.22,0,0,0,214.47,125.58Z"/><polygon class="cls-2" points="208.28 116.99 205.69 122.47 203.37 127.4 208.49 129.82 208.51 129.79 208.43 129.75 214.47 116.96 214.47 113.83 210.63 112.02 208.28 116.99"/><polygon class="cls-2" points="208.87 107.06 211.29 101.94 209.41 101.05 209.38 101.11 195.88 94.73 193.49 99.8 193.9 100 193.9 99.99 208.87 107.06"/><polygon class="cls-1" points="208.43 129.75 208.51 129.79 209.97 130.48 212.42 125.29 214.47 120.94 214.47 116.96 208.43 129.75"/><polygon class="cls-1" points="210.86 111.41 209.32 110.68 206.93 115.75 204.26 121.39 202.06 126.06 203.6 126.78 205.65 122.44 208.24 116.96 210.86 111.41"/><polygon class="cls-1" points="208.55 108.8 209.28 107.26 208.87 107.06 193.9 99.99 193.9 100 193.17 101.53 197.99 103.81 203.63 106.47 208.55 108.8"/><polygon class="cls-1" points="209.38 101.11 209.41 101.05 210.11 99.57 207.46 98.31 201.82 95.65 194.73 92.31 194 93.84 195.88 94.73 209.38 101.11"/><path class="cls-3" d="M120.53,2.2,115.87,0h0l4.69,2.22Z"/><path class="cls-3" d="M126.76,0a18.25,18.25,0,0,1-.33,3.11l4.37,2.06-.72,1.54L126,4.79v0l4.91,2.32-2.42,5.13-4.91-2.32h0l3.76,1.77-.73,1.54-4.07-1.92a18.37,18.37,0,0,1-17.7,6.29l-2.45,5.19-1.46-.69,0,0-5.12-2.42,2.32-4.93,0,0-2,4.34-1.54-.72,2.2-4.67A18.36,18.36,0,0,1,90.07,0H72.16V28h68V0Z"/><path class="cls-3" d="M120.8,0h-.94l.91.44Z"/><path class="cls-3" d="M101.74,3l1.54.73L100.66,9.3l0,0,2.35-5,5,2.38v0l1.54.73L107.5,12a12.41,12.41,0,0,0,9.39-3.32L111.23,6,112,4.46l6.13,2.9h0l-5-2.35,2.36-5h-14L101,1.14,98.57,0H96a12.41,12.41,0,0,0,3.32,8.09Z"/><path class="cls-2" d="M96.68,13.73l2.67-5.64A12.41,12.41,0,0,1,96,0h-6A18.36,18.36,0,0,0,96.68,13.73Z"/><path class="cls-2" d="M120.52,2.22,126,4.81v0L120.53,2.2Z"/><path class="cls-2" d="M120.77.44l5.66,2.67A18.25,18.25,0,0,0,126.76,0h-6Z"/><polygon class="cls-2" points="118.09 7.36 123.58 9.95 123.59 9.94 118.1 7.35 118.09 7.36"/><path class="cls-2" d="M100.66,9.3l-2.59,5.48,0,0,2.59-5.48Z"/><path class="cls-2" d="M107.5,12l-2.66,5.64a18.37,18.37,0,0,0,17.7-6.29l-5.65-2.67A12.41,12.41,0,0,1,107.5,12Z"/><polygon class="cls-2" points="108.1 6.74 103.05 4.36 100.7 9.33 98.11 14.81 95.79 19.74 100.91 22.16 100.93 22.13 100.85 22.09 108.1 6.74"/><polygon class="cls-2" points="118.1 7.35 123.59 9.94 128.5 12.26 130.92 7.13 126.01 4.81 120.52 2.22 115.83 0 115.48 0 113.12 5 118.1 7.35"/><polygon class="cls-1" points="109.65 7.44 108.11 6.71 108.1 6.74 100.85 22.09 100.93 22.13 102.39 22.82 104.84 17.63 107.5 11.99 109.65 7.44"/><polygon class="cls-1" points="103.28 3.75 101.74 3.02 99.35 8.09 96.68 13.73 94.48 18.4 96.02 19.12 98.07 14.78 100.66 9.3 103.28 3.75"/><polygon class="cls-1" points="126.02 4.79 130.08 6.71 130.8 5.17 126.43 3.11 120.77 0.44 119.86 0 115.88 0 120.53 2.2 126.02 4.79"/><polygon class="cls-1" points="111.96 4.46 111.23 6 116.89 8.67 122.54 11.34 126.61 13.26 127.34 11.72 123.58 9.95 118.09 7.36 111.96 4.46"/><polygon class="cls-1" points="101.5 0 98.57 0 100.97 1.14 101.5 0"/><path class="cls-3" d="M9.23,116.63,3.57,114l.73-1.54,6.13,2.9h0l-5-2.35,2.42-5.13,5,2.35v0L7,107.41l.72-1.54,5.35,2.53a12.43,12.43,0,0,0-3.33-9.29l-1.95,4.14-1.54-.73L8.47,97.9h0l-2.36,5L1,100.48l-.08.18-.9-.43V114.5l.44.2v0L2,115.4l-2,4.21V120A12.43,12.43,0,0,0,9.23,116.63Z"/><path class="cls-3" d="M0,72.93V89.26a18.51,18.51,0,0,1,4.25.33l2.38-5,1.53.73.08-.18,5.13,2.42-2.31,4.9h0l2.49-5.28,1.54.73-2.64,5.59a18.41,18.41,0,0,1,6.32,17.61l4.37,2.06-.72,1.54-4.07-1.92v0l4.91,2.32-2.42,5.13-4.91-2.32h0l3.76,1.77L19,121.22l-4.07-1.92A18.38,18.38,0,0,1,0,126v16.78H38.24V72.93Z"/><path class="cls-3" d="M0,95.22v3.36l1.58-3.35A13.9,13.9,0,0,0,0,95.22Z"/><polygon class="cls-2" points="10.44 115.32 15.92 117.91 15.93 117.9 10.44 115.31 10.44 115.32"/><polygon class="cls-2" points="8.47 97.9 11.06 92.42 11.06 92.42 8.47 97.9 8.47 97.9"/><path class="cls-2" d="M1.58,95.23l2.67-5.64A18.51,18.51,0,0,0,0,89.26v6A13.9,13.9,0,0,1,1.58,95.23Z"/><path class="cls-2" d="M14.88,119.3l-5.65-2.67A12.43,12.43,0,0,1,0,120v6A18.38,18.38,0,0,0,14.88,119.3Z"/><path class="cls-2" d="M12.86,110.18l5.49,2.59v0l-5.48-2.59Z"/><path class="cls-2" d="M13.11,108.4l5.66,2.67a18.41,18.41,0,0,0-6.32-17.61L9.78,99.11A12.43,12.43,0,0,1,13.11,108.4Z"/><polygon class="cls-2" points="0.98 100.48 6.11 102.9 8.47 97.9 11.06 92.42 13.37 87.52 8.24 85.1 8.16 85.28 8.16 85.28 0.98 100.48"/><polygon class="cls-2" points="0 114.5 0 115.63 0.44 114.7 0 114.5"/><polygon class="cls-2" points="7.88 107.83 5.46 112.96 10.44 115.31 15.93 117.9 20.84 120.22 23.26 115.09 18.35 112.77 12.86 110.18 7.88 107.83"/><polygon class="cls-1" points="0.45 114.67 0.44 114.7 0 115.63 0 119.61 1.99 115.4 0.45 114.67"/><polygon class="cls-1" points="6.29 102.52 7.83 103.25 9.78 99.11 12.45 93.46 15.09 87.87 13.55 87.14 11.06 92.42 8.47 97.9 6.29 102.52"/><polygon class="cls-1" points="0.98 100.48 8.16 85.28 8.16 85.28 6.63 84.55 4.25 89.59 1.58 95.23 0 98.58 0 100.23 0.9 100.66 0.98 100.48"/><polygon class="cls-1" points="7.76 105.87 7.04 107.41 12.87 110.16 18.36 112.75 22.42 114.67 23.14 113.13 18.77 111.07 13.11 108.4 7.76 105.87"/><polygon class="cls-1" points="4.3 112.42 3.57 113.96 9.23 116.63 14.88 119.3 18.95 121.22 19.68 119.68 15.92 117.91 10.44 115.32 4.3 112.42"/><path class="cls-3" d="M12.07,0h-1L12,.44C12.05.29,12.07.15,12.07,0Z"/><path class="cls-3" d="M11.8,2.2,7.14,0h0l4.7,2.22Z"/><path class="cls-3" d="M2.5,6l.73-1.54,6.14,2.9h0L4.4,5,6.75,0H0V7l.92.44L0,9.38V12A12.42,12.42,0,0,0,8.16,8.67Z"/><path class="cls-3" d="M18,0a18.36,18.36,0,0,1-.33,3.11l4.37,2.06-.72,1.54L17.29,4.79v0L22.2,7.13l-2.43,5.13L14.86,9.94h0l3.76,1.77-.73,1.54-4.07-1.92A18.38,18.38,0,0,1,0,18V36.69H214.26V0Z"/><path class="cls-2" d="M12,.44,17.7,3.11A18.36,18.36,0,0,0,18,0h-6C12.07.15,12.05.29,12,.44Z"/><path class="cls-2" d="M11.79,2.22l5.49,2.59v0L11.8,2.2Z"/><path class="cls-2" d="M13.81,11.34,8.16,8.67A12.42,12.42,0,0,1,0,12v6A18.38,18.38,0,0,0,13.81,11.34Z"/><polygon class="cls-2" points="9.37 7.36 14.85 9.95 14.86 9.94 9.37 7.35 9.37 7.36"/><polygon class="cls-2" points="9.37 7.35 14.86 9.94 19.77 12.26 22.2 7.13 17.28 4.81 11.79 2.22 7.09 0 6.75 0 4.39 5 9.37 7.35"/><polygon class="cls-1" points="0.01 7 0.01 9.38 0.92 7.44 0.01 7"/><polygon class="cls-1" points="17.29 4.79 21.35 6.71 22.07 5.17 17.7 3.11 12.04 0.44 11.12 0 7.14 0 11.8 2.2 17.29 4.79"/><polygon class="cls-1" points="3.23 4.46 2.5 6 8.16 8.67 13.81 11.34 17.88 13.26 18.61 11.72 14.85 9.95 9.37 7.36 3.23 4.46"/><path class="cls-3" d="M212.42,17.63,210,22.82l-1.46-.69,0,0-5.12-2.42,2.32-4.93,0,0-2.05,4.34-1.54-.72,2.2-4.67A18.31,18.31,0,0,1,197.66,0H0V36.69H214.47V17.92A20.22,20.22,0,0,1,212.42,17.63Z"/><path class="cls-3" d="M209.32,3l1.54.73L208.24,9.3l0,0,2.35-5,3.84,1.81V0h-5.38l-.54,1.14L206.15,0h-2.54a12.43,12.43,0,0,0,3.32,8.09Z"/><path class="cls-2" d="M204.26,13.73l2.67-5.64A12.43,12.43,0,0,1,203.61,0h-6A18.31,18.31,0,0,0,204.26,13.73Z"/><path class="cls-2" d="M214.47,17.92V13.28l-2.05,4.35A20.22,20.22,0,0,0,214.47,17.92Z"/><path class="cls-2" d="M208.24,9.3l-2.59,5.48,0,0,2.59-5.48Z"/><polygon class="cls-2" points="208.28 9.33 205.69 14.81 203.37 19.74 208.49 22.16 208.51 22.13 208.43 22.09 214.47 9.3 214.47 6.17 210.63 4.36 208.28 9.33"/><polygon class="cls-1" points="208.43 22.09 208.51 22.13 209.97 22.82 212.42 17.63 214.47 13.28 214.47 9.3 208.43 22.09"/><polygon class="cls-1" points="210.86 3.75 209.32 3.02 206.93 8.09 204.26 13.73 202.06 18.4 203.6 19.12 205.65 14.78 208.24 9.3 210.86 3.75"/><polygon class="cls-1" points="209.09 0 206.15 0 208.55 1.14 209.09 0"/><path class="cls-3" d="M3.18,197.25l2.38-5,1.53.73.09-.18,5.12,2.42L10,200.08h0l2.49-5.28,1.54.73-2.64,5.59A18.38,18.38,0,0,1,18,215.32H197.65a18.56,18.56,0,0,1,.34-3.55l-4.82-2.28.73-1.54-.41-.19,2.39-5.07L194,201.8l.72-1.53,7.09,3.34A18.44,18.44,0,0,1,214.47,197V142.73H0v54.18A18.08,18.08,0,0,1,3.18,197.25Z"/><path class="cls-3" d="M203.61,215.32h1.91l-1.89-.89C203.61,214.73,203.61,215,203.61,215.32Z"/><path class="cls-3" d="M210.11,207.53l-.7,1.48,1.88.89L208.87,215l.41.2-.05.1h5.24V203a12.42,12.42,0,0,0-7,3.32Z"/><path class="cls-3" d="M6.76,210.91l-1.54-.73,2.18-4.62h0l-2.36,5-5-2.38v7.14H6.51L6,215.07l.72-1.54,3.8,1.79h1.58a12.43,12.43,0,0,0-3.36-8.55Z"/><path class="cls-3" d="M0,202.87V204l.51-1.09Z"/><path class="cls-2" d="M201.82,203.61l5.64,2.67a12.42,12.42,0,0,1,7-3.32v-6A18.44,18.44,0,0,0,201.82,203.61Z"/><path class="cls-2" d="M203.63,214.43,198,211.77a18.56,18.56,0,0,0-.34,3.55h6C203.61,215,203.61,214.73,203.63,214.43Z"/><polygon class="cls-2" points="208.87 215.02 211.29 209.9 209.41 209.01 209.38 209.07 195.88 202.69 193.49 207.76 193.9 207.96 193.9 207.96 208.87 215.02"/><polygon class="cls-1" points="208.87 215.02 193.9 207.96 193.9 207.96 193.17 209.49 197.99 211.77 203.63 214.43 205.52 215.32 209.22 215.32 209.28 215.22 208.87 215.02"/><polygon class="cls-1" points="209.38 209.07 209.41 209.01 210.11 207.53 207.46 206.28 201.82 203.61 194.73 200.26 194 201.8 195.88 202.69 209.38 209.07"/><path class="cls-2" d="M11.38,201.12l-2.67,5.65a12.43,12.43,0,0,1,3.36,8.55h6A18.38,18.38,0,0,0,11.38,201.12Z"/><path class="cls-2" d="M.51,202.89l2.67-5.64A18.08,18.08,0,0,0,0,196.91v6Z"/><polygon class="cls-2" points="7.4 205.56 9.99 200.08 9.99 200.08 7.4 205.56 7.4 205.56"/><polygon class="cls-2" points="7.4 205.56 9.99 200.08 12.3 195.18 7.18 192.76 7.09 192.94 7.09 192.94 0 207.96 0 208.18 5.04 210.56 7.4 205.56"/><polygon class="cls-1" points="5.22 210.18 6.76 210.91 8.71 206.77 11.38 201.12 14.02 195.53 12.48 194.8 9.99 200.08 7.4 205.56 5.22 210.18"/><polygon class="cls-1" points="7.09 192.94 7.09 192.94 5.56 192.21 3.18 197.25 0.51 202.89 0 203.98 0 207.96 7.09 192.94"/><polygon class="cls-1" points="5.97 215.07 6.51 215.32 10.49 215.32 6.7 213.53 5.97 215.07"/></g></g></svg>